<mxfile host="app.diagrams.net" modified="2024-04-17T16:10:09.183Z" agent="Mozilla/5.0 (Windows NT 10.0; Win64; x64) AppleWebKit/537.36 (KHTML, like Gecko) Chrome/123.0.0.0 Safari/537.36 Edg/123.0.0.0" etag="RJWYhNgLLY8cKiwGl3MP" version="24.2.2" type="google">
  <diagram name="Trang-1" id="X-ACKBwjHdm_kxpGx0Pq">
    <mxGraphModel grid="1" page="1" gridSize="10" guides="1" tooltips="1" connect="1" arrows="1" fold="1" pageScale="1" pageWidth="827" pageHeight="1169" math="0" shadow="0">
      <root>
        <mxCell id="0" />
        <mxCell id="1" parent="0" />
        <mxCell id="FI6vfKL5hPfgtBy2urA6-1" value="BASE" style="whiteSpace=wrap;html=1;align=center;" vertex="1" parent="1">
          <mxGeometry x="304" y="380" width="100" height="40" as="geometry" />
        </mxCell>
        <mxCell id="FI6vfKL5hPfgtBy2urA6-2" value="BASE_CODE" style="ellipse;whiteSpace=wrap;html=1;align=center;fontStyle=4;fontSize=8;" vertex="1" parent="1">
          <mxGeometry x="260" y="160" width="100" height="40" as="geometry" />
        </mxCell>
        <mxCell id="FI6vfKL5hPfgtBy2urA6-3" value="BASE_MANAGER" style="ellipse;whiteSpace=wrap;html=1;align=center;fontSize=8;" vertex="1" parent="1">
          <mxGeometry x="170" y="250" width="100" height="40" as="geometry" />
        </mxCell>
        <mxCell id="FI6vfKL5hPfgtBy2urA6-4" value="BASE_PHONE" style="ellipse;whiteSpace=wrap;html=1;align=center;fontSize=8;" vertex="1" parent="1">
          <mxGeometry x="190" y="200" width="100" height="40" as="geometry" />
        </mxCell>
        <mxCell id="FI6vfKL5hPfgtBy2urA6-5" value="BASE_AREA_CODE" style="ellipse;whiteSpace=wrap;html=1;align=center;fontSize=8;" vertex="1" parent="1">
          <mxGeometry x="450" y="250" width="100" height="40" as="geometry" />
        </mxCell>
        <mxCell id="FI6vfKL5hPfgtBy2urA6-6" value="BASE_STATE" style="ellipse;whiteSpace=wrap;html=1;align=center;fontSize=8;" vertex="1" parent="1">
          <mxGeometry x="430" y="200" width="100" height="40" as="geometry" />
        </mxCell>
        <mxCell id="FI6vfKL5hPfgtBy2urA6-7" value="BASE_CITY" style="ellipse;whiteSpace=wrap;html=1;align=center;fontSize=8;" vertex="1" parent="1">
          <mxGeometry x="370" y="160" width="100" height="40" as="geometry" />
        </mxCell>
        <mxCell id="FI6vfKL5hPfgtBy2urA6-14" value="has" style="shape=rhombus;perimeter=rhombusPerimeter;whiteSpace=wrap;html=1;align=center;fontSize=10;" vertex="1" parent="1">
          <mxGeometry x="160" y="370" width="120" height="60" as="geometry" />
        </mxCell>
        <mxCell id="FI6vfKL5hPfgtBy2urA6-15" value="creates" style="shape=rhombus;perimeter=rhombusPerimeter;whiteSpace=wrap;html=1;align=center;fontSize=10;" vertex="1" parent="1">
          <mxGeometry x="440" y="370" width="120" height="60" as="geometry" />
        </mxCell>
        <mxCell id="FI6vfKL5hPfgtBy2urA6-16" value="" style="endArrow=none;html=1;rounded=0;" edge="1" parent="1" source="FI6vfKL5hPfgtBy2urA6-1" target="FI6vfKL5hPfgtBy2urA6-14">
          <mxGeometry relative="1" as="geometry">
            <mxPoint x="280" y="310" as="sourcePoint" />
            <mxPoint x="440" y="310" as="targetPoint" />
          </mxGeometry>
        </mxCell>
        <mxCell id="FI6vfKL5hPfgtBy2urA6-17" value="1" style="resizable=0;html=1;whiteSpace=wrap;align=right;verticalAlign=bottom;" connectable="0" vertex="1" parent="FI6vfKL5hPfgtBy2urA6-16">
          <mxGeometry x="1" relative="1" as="geometry">
            <mxPoint x="5" y="-3" as="offset" />
          </mxGeometry>
        </mxCell>
        <mxCell id="FI6vfKL5hPfgtBy2urA6-18" value="" style="endArrow=none;html=1;rounded=0;" edge="1" parent="1" source="FI6vfKL5hPfgtBy2urA6-1" target="FI6vfKL5hPfgtBy2urA6-15">
          <mxGeometry relative="1" as="geometry">
            <mxPoint x="280" y="310" as="sourcePoint" />
            <mxPoint x="440" y="310" as="targetPoint" />
          </mxGeometry>
        </mxCell>
        <mxCell id="FI6vfKL5hPfgtBy2urA6-19" value="1" style="resizable=0;html=1;whiteSpace=wrap;align=right;verticalAlign=bottom;" connectable="0" vertex="1" parent="FI6vfKL5hPfgtBy2urA6-18">
          <mxGeometry x="1" relative="1" as="geometry">
            <mxPoint x="4" y="-2" as="offset" />
          </mxGeometry>
        </mxCell>
        <mxCell id="FI6vfKL5hPfgtBy2urA6-20" value="TRUCK" style="whiteSpace=wrap;html=1;align=center;" vertex="1" parent="1">
          <mxGeometry x="-20" y="590" width="100" height="40" as="geometry" />
        </mxCell>
        <mxCell id="FI6vfKL5hPfgtBy2urA6-21" value="DRIVER" style="whiteSpace=wrap;html=1;align=center;" vertex="1" parent="1">
          <mxGeometry x="-20" y="390" width="100" height="40" as="geometry" />
        </mxCell>
        <mxCell id="FI6vfKL5hPfgtBy2urA6-22" value="TYPE" style="whiteSpace=wrap;html=1;align=center;" vertex="1" parent="1">
          <mxGeometry x="270" y="720" width="100" height="40" as="geometry" />
        </mxCell>
        <mxCell id="FI6vfKL5hPfgtBy2urA6-23" value="INCIDENT" style="whiteSpace=wrap;html=1;align=center;" vertex="1" parent="1">
          <mxGeometry x="140" y="840" width="100" height="40" as="geometry" />
        </mxCell>
        <mxCell id="FI6vfKL5hPfgtBy2urA6-25" value="REPORT" style="shape=associativeEntity;whiteSpace=wrap;html=1;align=center;" vertex="1" parent="1">
          <mxGeometry x="-40" y="940" width="140" height="60" as="geometry" />
        </mxCell>
        <mxCell id="FI6vfKL5hPfgtBy2urA6-26" value="ORDER" style="whiteSpace=wrap;html=1;align=center;" vertex="1" parent="1">
          <mxGeometry x="610" y="590" width="100" height="40" as="geometry" />
        </mxCell>
        <mxCell id="FI6vfKL5hPfgtBy2urA6-32" value="CUSTOMER" style="whiteSpace=wrap;html=1;align=center;" vertex="1" parent="1">
          <mxGeometry x="610" y="380" width="100" height="40" as="geometry" />
        </mxCell>
        <mxCell id="FI6vfKL5hPfgtBy2urA6-33" value="RATE" style="whiteSpace=wrap;html=1;align=center;" vertex="1" parent="1">
          <mxGeometry x="610" y="950" width="100" height="40" as="geometry" />
        </mxCell>
        <mxCell id="FI6vfKL5hPfgtBy2urA6-42" value="" style="endArrow=none;html=1;rounded=0;dashed=1;dashPattern=1 2;" edge="1" parent="1" source="FI6vfKL5hPfgtBy2urA6-20" target="FI6vfKL5hPfgtBy2urA6-14">
          <mxGeometry relative="1" as="geometry">
            <mxPoint x="310" y="460" as="sourcePoint" />
            <mxPoint x="470" y="460" as="targetPoint" />
          </mxGeometry>
        </mxCell>
        <mxCell id="FI6vfKL5hPfgtBy2urA6-43" value="N" style="resizable=0;html=1;whiteSpace=wrap;align=right;verticalAlign=bottom;" connectable="0" vertex="1" parent="FI6vfKL5hPfgtBy2urA6-42">
          <mxGeometry x="1" relative="1" as="geometry">
            <mxPoint x="9" y="29" as="offset" />
          </mxGeometry>
        </mxCell>
        <mxCell id="FI6vfKL5hPfgtBy2urA6-54" value="has" style="shape=rhombus;perimeter=rhombusPerimeter;whiteSpace=wrap;html=1;align=center;fontSize=10;" vertex="1" parent="1">
          <mxGeometry x="120" y="710" width="120" height="60" as="geometry" />
        </mxCell>
        <mxCell id="FI6vfKL5hPfgtBy2urA6-55" value="" style="endArrow=none;html=1;rounded=0;dashed=1;dashPattern=1 2;" edge="1" parent="1" source="FI6vfKL5hPfgtBy2urA6-20" target="FI6vfKL5hPfgtBy2urA6-54">
          <mxGeometry relative="1" as="geometry">
            <mxPoint x="310" y="550" as="sourcePoint" />
            <mxPoint x="470" y="550" as="targetPoint" />
          </mxGeometry>
        </mxCell>
        <mxCell id="FI6vfKL5hPfgtBy2urA6-56" value="N" style="resizable=0;html=1;whiteSpace=wrap;align=right;verticalAlign=bottom;" connectable="0" vertex="1" parent="FI6vfKL5hPfgtBy2urA6-55">
          <mxGeometry x="1" relative="1" as="geometry">
            <mxPoint x="10" y="-5" as="offset" />
          </mxGeometry>
        </mxCell>
        <mxCell id="FI6vfKL5hPfgtBy2urA6-57" value="" style="endArrow=none;html=1;rounded=0;" edge="1" parent="1" source="FI6vfKL5hPfgtBy2urA6-22" target="FI6vfKL5hPfgtBy2urA6-54">
          <mxGeometry relative="1" as="geometry">
            <mxPoint x="310" y="550" as="sourcePoint" />
            <mxPoint x="470" y="550" as="targetPoint" />
          </mxGeometry>
        </mxCell>
        <mxCell id="FI6vfKL5hPfgtBy2urA6-58" value="1" style="resizable=0;html=1;whiteSpace=wrap;align=right;verticalAlign=bottom;" connectable="0" vertex="1" parent="FI6vfKL5hPfgtBy2urA6-57">
          <mxGeometry x="1" relative="1" as="geometry">
            <mxPoint x="10" as="offset" />
          </mxGeometry>
        </mxCell>
        <mxCell id="FI6vfKL5hPfgtBy2urA6-59" value="" style="endArrow=none;html=1;rounded=0;dashed=1;dashPattern=1 2;" edge="1" parent="1" source="FI6vfKL5hPfgtBy2urA6-26" target="FI6vfKL5hPfgtBy2urA6-15">
          <mxGeometry relative="1" as="geometry">
            <mxPoint x="310" y="460" as="sourcePoint" />
            <mxPoint x="470" y="460" as="targetPoint" />
          </mxGeometry>
        </mxCell>
        <mxCell id="FI6vfKL5hPfgtBy2urA6-60" value="N" style="resizable=0;html=1;whiteSpace=wrap;align=right;verticalAlign=bottom;" connectable="0" vertex="1" parent="FI6vfKL5hPfgtBy2urA6-59">
          <mxGeometry x="1" relative="1" as="geometry">
            <mxPoint x="8" y="31" as="offset" />
          </mxGeometry>
        </mxCell>
        <mxCell id="FI6vfKL5hPfgtBy2urA6-61" value="has" style="shape=rhombus;perimeter=rhombusPerimeter;whiteSpace=wrap;html=1;align=center;fontSize=10;" vertex="1" parent="1">
          <mxGeometry x="600" y="485" width="120" height="60" as="geometry" />
        </mxCell>
        <mxCell id="FI6vfKL5hPfgtBy2urA6-62" value="" style="endArrow=none;html=1;rounded=0;dashed=1;dashPattern=1 2;" edge="1" parent="1" source="FI6vfKL5hPfgtBy2urA6-26" target="FI6vfKL5hPfgtBy2urA6-61">
          <mxGeometry relative="1" as="geometry">
            <mxPoint x="310" y="460" as="sourcePoint" />
            <mxPoint x="470" y="460" as="targetPoint" />
          </mxGeometry>
        </mxCell>
        <mxCell id="FI6vfKL5hPfgtBy2urA6-63" value="N" style="resizable=0;html=1;whiteSpace=wrap;align=right;verticalAlign=bottom;" connectable="0" vertex="1" parent="FI6vfKL5hPfgtBy2urA6-62">
          <mxGeometry x="1" relative="1" as="geometry">
            <mxPoint x="20" y="15" as="offset" />
          </mxGeometry>
        </mxCell>
        <mxCell id="FI6vfKL5hPfgtBy2urA6-64" value="" style="endArrow=none;html=1;rounded=0;" edge="1" parent="1" source="FI6vfKL5hPfgtBy2urA6-32" target="FI6vfKL5hPfgtBy2urA6-61">
          <mxGeometry relative="1" as="geometry">
            <mxPoint x="310" y="460" as="sourcePoint" />
            <mxPoint x="470" y="460" as="targetPoint" />
          </mxGeometry>
        </mxCell>
        <mxCell id="FI6vfKL5hPfgtBy2urA6-65" value="1" style="resizable=0;html=1;whiteSpace=wrap;align=right;verticalAlign=bottom;" connectable="0" vertex="1" parent="FI6vfKL5hPfgtBy2urA6-64">
          <mxGeometry x="1" relative="1" as="geometry">
            <mxPoint x="20" as="offset" />
          </mxGeometry>
        </mxCell>
        <mxCell id="FI6vfKL5hPfgtBy2urA6-66" value="applies" style="shape=rhombus;perimeter=rhombusPerimeter;whiteSpace=wrap;html=1;align=center;fontSize=10;" vertex="1" parent="1">
          <mxGeometry x="600" y="700" width="120" height="60" as="geometry" />
        </mxCell>
        <mxCell id="FI6vfKL5hPfgtBy2urA6-67" value="" style="endArrow=none;html=1;rounded=0;dashed=1;dashPattern=1 2;" edge="1" parent="1" source="FI6vfKL5hPfgtBy2urA6-26" target="FI6vfKL5hPfgtBy2urA6-66">
          <mxGeometry relative="1" as="geometry">
            <mxPoint x="310" y="720" as="sourcePoint" />
            <mxPoint x="470" y="720" as="targetPoint" />
          </mxGeometry>
        </mxCell>
        <mxCell id="FI6vfKL5hPfgtBy2urA6-68" value="N" style="resizable=0;html=1;whiteSpace=wrap;align=right;verticalAlign=bottom;" connectable="0" vertex="1" parent="FI6vfKL5hPfgtBy2urA6-67">
          <mxGeometry x="1" relative="1" as="geometry" />
        </mxCell>
        <mxCell id="FI6vfKL5hPfgtBy2urA6-69" value="" style="endArrow=none;html=1;rounded=0;" edge="1" parent="1" source="FI6vfKL5hPfgtBy2urA6-33" target="FI6vfKL5hPfgtBy2urA6-66">
          <mxGeometry relative="1" as="geometry">
            <mxPoint x="310" y="720" as="sourcePoint" />
            <mxPoint x="470" y="720" as="targetPoint" />
          </mxGeometry>
        </mxCell>
        <mxCell id="FI6vfKL5hPfgtBy2urA6-70" value="1" style="resizable=0;html=1;whiteSpace=wrap;align=right;verticalAlign=bottom;" connectable="0" vertex="1" parent="FI6vfKL5hPfgtBy2urA6-69">
          <mxGeometry x="1" relative="1" as="geometry">
            <mxPoint y="21" as="offset" />
          </mxGeometry>
        </mxCell>
        <mxCell id="FI6vfKL5hPfgtBy2urA6-71" value="creates" style="shape=rhombus;double=1;perimeter=rhombusPerimeter;whiteSpace=wrap;html=1;align=center;fontSize=10;" vertex="1" parent="1">
          <mxGeometry x="-30" y="710" width="120" height="60" as="geometry" />
        </mxCell>
        <mxCell id="FI6vfKL5hPfgtBy2urA6-72" value="" style="endArrow=none;html=1;rounded=0;" edge="1" parent="1" source="FI6vfKL5hPfgtBy2urA6-20" target="FI6vfKL5hPfgtBy2urA6-71">
          <mxGeometry relative="1" as="geometry">
            <mxPoint x="200" y="630" as="sourcePoint" />
            <mxPoint x="360" y="630" as="targetPoint" />
          </mxGeometry>
        </mxCell>
        <mxCell id="FI6vfKL5hPfgtBy2urA6-73" value="1" style="resizable=0;html=1;whiteSpace=wrap;align=right;verticalAlign=bottom;" connectable="0" vertex="1" parent="FI6vfKL5hPfgtBy2urA6-72">
          <mxGeometry x="1" relative="1" as="geometry">
            <mxPoint x="-10" as="offset" />
          </mxGeometry>
        </mxCell>
        <mxCell id="FI6vfKL5hPfgtBy2urA6-74" value="" style="endArrow=none;html=1;rounded=0;dashed=1;dashPattern=1 2;" edge="1" parent="1" source="FI6vfKL5hPfgtBy2urA6-25" target="FI6vfKL5hPfgtBy2urA6-71">
          <mxGeometry relative="1" as="geometry">
            <mxPoint x="200" y="630" as="sourcePoint" />
            <mxPoint x="360" y="630" as="targetPoint" />
          </mxGeometry>
        </mxCell>
        <mxCell id="FI6vfKL5hPfgtBy2urA6-75" value="N" style="resizable=0;html=1;whiteSpace=wrap;align=right;verticalAlign=bottom;" connectable="0" vertex="1" parent="FI6vfKL5hPfgtBy2urA6-74">
          <mxGeometry x="1" relative="1" as="geometry">
            <mxPoint x="-10" y="20" as="offset" />
          </mxGeometry>
        </mxCell>
        <mxCell id="FI6vfKL5hPfgtBy2urA6-76" value="occurs" style="shape=rhombus;double=1;perimeter=rhombusPerimeter;whiteSpace=wrap;html=1;align=center;fontSize=10;" vertex="1" parent="1">
          <mxGeometry x="130" y="940" width="120" height="60" as="geometry" />
        </mxCell>
        <mxCell id="FI6vfKL5hPfgtBy2urA6-77" value="" style="endArrow=none;html=1;rounded=0;dashed=1;dashPattern=1 2;" edge="1" parent="1" source="FI6vfKL5hPfgtBy2urA6-25" target="FI6vfKL5hPfgtBy2urA6-76">
          <mxGeometry relative="1" as="geometry">
            <mxPoint x="200" y="630" as="sourcePoint" />
            <mxPoint x="360" y="630" as="targetPoint" />
          </mxGeometry>
        </mxCell>
        <mxCell id="FI6vfKL5hPfgtBy2urA6-78" value="N" style="resizable=0;html=1;whiteSpace=wrap;align=right;verticalAlign=bottom;" connectable="0" vertex="1" parent="FI6vfKL5hPfgtBy2urA6-77">
          <mxGeometry x="1" relative="1" as="geometry" />
        </mxCell>
        <mxCell id="FI6vfKL5hPfgtBy2urA6-79" value="" style="endArrow=none;html=1;rounded=0;" edge="1" parent="1" source="FI6vfKL5hPfgtBy2urA6-23" target="FI6vfKL5hPfgtBy2urA6-76">
          <mxGeometry relative="1" as="geometry">
            <mxPoint x="200" y="630" as="sourcePoint" />
            <mxPoint x="360" y="630" as="targetPoint" />
          </mxGeometry>
        </mxCell>
        <mxCell id="FI6vfKL5hPfgtBy2urA6-80" value="1" style="resizable=0;html=1;whiteSpace=wrap;align=right;verticalAlign=bottom;" connectable="0" vertex="1" parent="FI6vfKL5hPfgtBy2urA6-79">
          <mxGeometry x="1" relative="1" as="geometry" />
        </mxCell>
        <mxCell id="FI6vfKL5hPfgtBy2urA6-81" value="drives" style="shape=rhombus;perimeter=rhombusPerimeter;whiteSpace=wrap;html=1;align=center;fontSize=10;" vertex="1" parent="1">
          <mxGeometry x="-30" y="485" width="120" height="60" as="geometry" />
        </mxCell>
        <mxCell id="FI6vfKL5hPfgtBy2urA6-82" value="" style="endArrow=none;html=1;rounded=0;dashed=1;dashPattern=1 1;" edge="1" parent="1" source="FI6vfKL5hPfgtBy2urA6-20" target="FI6vfKL5hPfgtBy2urA6-81">
          <mxGeometry relative="1" as="geometry">
            <mxPoint x="-10" y="580" as="sourcePoint" />
            <mxPoint x="360" y="550" as="targetPoint" />
          </mxGeometry>
        </mxCell>
        <mxCell id="FI6vfKL5hPfgtBy2urA6-83" value="1" style="resizable=0;html=1;whiteSpace=wrap;align=right;verticalAlign=bottom;" connectable="0" vertex="1" parent="FI6vfKL5hPfgtBy2urA6-82">
          <mxGeometry x="1" relative="1" as="geometry">
            <mxPoint y="15" as="offset" />
          </mxGeometry>
        </mxCell>
        <mxCell id="FI6vfKL5hPfgtBy2urA6-84" value="" style="endArrow=none;html=1;rounded=0;" edge="1" parent="1" source="FI6vfKL5hPfgtBy2urA6-21" target="FI6vfKL5hPfgtBy2urA6-81">
          <mxGeometry relative="1" as="geometry">
            <mxPoint x="200" y="550" as="sourcePoint" />
            <mxPoint x="360" y="550" as="targetPoint" />
          </mxGeometry>
        </mxCell>
        <mxCell id="FI6vfKL5hPfgtBy2urA6-85" value="1" style="resizable=0;html=1;whiteSpace=wrap;align=right;verticalAlign=bottom;" connectable="0" vertex="1" parent="FI6vfKL5hPfgtBy2urA6-84">
          <mxGeometry x="1" relative="1" as="geometry" />
        </mxCell>
        <mxCell id="FI6vfKL5hPfgtBy2urA6-86" value="TYPE_CODE" style="ellipse;whiteSpace=wrap;html=1;align=center;fontStyle=4;fontSize=8;" vertex="1" parent="1">
          <mxGeometry x="440" y="700" width="100" height="40" as="geometry" />
        </mxCell>
        <mxCell id="FI6vfKL5hPfgtBy2urA6-87" value="TYPE_DESCRIPTION" style="ellipse;whiteSpace=wrap;html=1;align=center;fontSize=8;" vertex="1" parent="1">
          <mxGeometry x="440" y="740" width="100" height="40" as="geometry" />
        </mxCell>
        <mxCell id="FI6vfKL5hPfgtBy2urA6-88" value="INCIDENT_CODE" style="ellipse;whiteSpace=wrap;html=1;align=center;fontStyle=4;fontSize=8;" vertex="1" parent="1">
          <mxGeometry x="330" y="820" width="100" height="40" as="geometry" />
        </mxCell>
        <mxCell id="FI6vfKL5hPfgtBy2urA6-89" value="INCIDENT_DESCRIPTION" style="ellipse;whiteSpace=wrap;html=1;align=center;fontSize=8;" vertex="1" parent="1">
          <mxGeometry x="330" y="860" width="100" height="40" as="geometry" />
        </mxCell>
        <mxCell id="FI6vfKL5hPfgtBy2urA6-90" value="TRUCK_NUM" style="ellipse;whiteSpace=wrap;html=1;align=center;fontStyle=4;fontSize=8;" vertex="1" parent="1">
          <mxGeometry x="-190" y="455" width="100" height="40" as="geometry" />
        </mxCell>
        <mxCell id="FI6vfKL5hPfgtBy2urA6-91" value="BASE_CODE" style="ellipse;whiteSpace=wrap;html=1;align=center;fontSize=8;" vertex="1" parent="1">
          <mxGeometry x="-190" y="495" width="100" height="40" as="geometry" />
        </mxCell>
        <mxCell id="FI6vfKL5hPfgtBy2urA6-92" value="TYPE_CODE" style="ellipse;whiteSpace=wrap;html=1;align=center;fontSize=8;" vertex="1" parent="1">
          <mxGeometry x="-190" y="535" width="100" height="40" as="geometry" />
        </mxCell>
        <mxCell id="FI6vfKL5hPfgtBy2urA6-93" value="TRUCK_MILES" style="ellipse;whiteSpace=wrap;html=1;align=center;fontSize=8;" vertex="1" parent="1">
          <mxGeometry x="-190" y="575" width="100" height="40" as="geometry" />
        </mxCell>
        <mxCell id="FI6vfKL5hPfgtBy2urA6-94" value="&lt;font style=&quot;font-size: 8px;&quot;&gt;TRUCK_SERIAL_NUM&lt;/font&gt;" style="ellipse;whiteSpace=wrap;html=1;align=center;fontSize=8;" vertex="1" parent="1">
          <mxGeometry x="-190" y="615" width="100" height="40" as="geometry" />
        </mxCell>
        <mxCell id="FI6vfKL5hPfgtBy2urA6-95" value="DRIVER_ID" style="ellipse;whiteSpace=wrap;html=1;align=center;fontStyle=4;fontSize=8;" vertex="1" parent="1">
          <mxGeometry x="-190" width="100" height="40" as="geometry" />
        </mxCell>
        <mxCell id="FI6vfKL5hPfgtBy2urA6-96" value="TRUCK_NUM" style="ellipse;whiteSpace=wrap;html=1;align=center;fontSize=8;" vertex="1" parent="1">
          <mxGeometry x="-190" y="40" width="100" height="40" as="geometry" />
        </mxCell>
        <mxCell id="FI6vfKL5hPfgtBy2urA6-97" value="DRIVER_NAME" style="ellipse;whiteSpace=wrap;html=1;align=center;fontSize=8;" vertex="1" parent="1">
          <mxGeometry x="-190" y="80" width="100" height="40" as="geometry" />
        </mxCell>
        <mxCell id="FI6vfKL5hPfgtBy2urA6-98" value="DRIVER_ADDRESS" style="ellipse;whiteSpace=wrap;html=1;align=center;fontSize=8;" vertex="1" parent="1">
          <mxGeometry x="-190" y="120" width="100" height="40" as="geometry" />
        </mxCell>
        <mxCell id="FI6vfKL5hPfgtBy2urA6-99" value="DRIVER_PHONE" style="ellipse;whiteSpace=wrap;html=1;align=center;fontSize=8;" vertex="1" parent="1">
          <mxGeometry x="-190" y="160" width="100" height="40" as="geometry" />
        </mxCell>
        <mxCell id="FI6vfKL5hPfgtBy2urA6-100" value="DRIVER_EMAIL" style="ellipse;whiteSpace=wrap;html=1;align=center;fontSize=8;" vertex="1" parent="1">
          <mxGeometry x="-190" y="200" width="100" height="40" as="geometry" />
        </mxCell>
        <mxCell id="FI6vfKL5hPfgtBy2urA6-101" value="DRIVER_DOB" style="ellipse;whiteSpace=wrap;html=1;align=center;fontSize=8;" vertex="1" parent="1">
          <mxGeometry x="-190" y="240" width="100" height="40" as="geometry" />
        </mxCell>
        <mxCell id="FI6vfKL5hPfgtBy2urA6-102" value="DRIVER_HIRED_DATE" style="ellipse;whiteSpace=wrap;html=1;align=center;fontSize=8;" vertex="1" parent="1">
          <mxGeometry x="-190" y="280" width="100" height="40" as="geometry" />
        </mxCell>
        <mxCell id="FI6vfKL5hPfgtBy2urA6-103" value="DRIVER_STATUS" style="ellipse;whiteSpace=wrap;html=1;align=center;fontSize=8;" vertex="1" parent="1">
          <mxGeometry x="-190" y="320" width="100" height="40" as="geometry" />
        </mxCell>
        <mxCell id="FI6vfKL5hPfgtBy2urA6-107" value="TRUCK_NUM" style="ellipse;whiteSpace=wrap;html=1;align=center;fontSize=8;" vertex="1" parent="1">
          <mxGeometry x="-190" y="900" width="100" height="40" as="geometry" />
        </mxCell>
        <mxCell id="FI6vfKL5hPfgtBy2urA6-108" value="INCIDENT_CODE" style="ellipse;whiteSpace=wrap;html=1;align=center;fontSize=8;" vertex="1" parent="1">
          <mxGeometry x="-190" y="940" width="100" height="40" as="geometry" />
        </mxCell>
        <mxCell id="FI6vfKL5hPfgtBy2urA6-109" value="REPORT_DATE" style="ellipse;whiteSpace=wrap;html=1;align=center;fontSize=8;" vertex="1" parent="1">
          <mxGeometry x="-190" y="980" width="100" height="40" as="geometry" />
        </mxCell>
        <mxCell id="FI6vfKL5hPfgtBy2urA6-110" value="ORDER_CODE" style="ellipse;whiteSpace=wrap;html=1;align=center;fontStyle=4;fontSize=8;" vertex="1" parent="1">
          <mxGeometry x="790" y="420" width="100" height="40" as="geometry" />
        </mxCell>
        <mxCell id="FI6vfKL5hPfgtBy2urA6-111" value="BASE_CODE" style="ellipse;whiteSpace=wrap;html=1;align=center;fontSize=8;" vertex="1" parent="1">
          <mxGeometry x="790" y="460" width="100" height="40" as="geometry" />
        </mxCell>
        <mxCell id="FI6vfKL5hPfgtBy2urA6-112" value="CUS_ID" style="ellipse;whiteSpace=wrap;html=1;align=center;fontSize=8;" vertex="1" parent="1">
          <mxGeometry x="790" y="500" width="100" height="40" as="geometry" />
        </mxCell>
        <mxCell id="FI6vfKL5hPfgtBy2urA6-113" value="RATE_CODE" style="ellipse;whiteSpace=wrap;html=1;align=center;fontSize=8;" vertex="1" parent="1">
          <mxGeometry x="790" y="540" width="100" height="40" as="geometry" />
        </mxCell>
        <mxCell id="FI6vfKL5hPfgtBy2urA6-114" value="ORDER_CONSIGNEE" style="ellipse;whiteSpace=wrap;html=1;align=center;fontSize=8;" vertex="1" parent="1">
          <mxGeometry x="790" y="580" width="100" height="40" as="geometry" />
        </mxCell>
        <mxCell id="FI6vfKL5hPfgtBy2urA6-115" value="ORDER_BOOKING_DATE" style="ellipse;whiteSpace=wrap;html=1;align=center;fontSize=8;" vertex="1" parent="1">
          <mxGeometry x="790" y="620" width="100" height="40" as="geometry" />
        </mxCell>
        <mxCell id="FI6vfKL5hPfgtBy2urA6-116" value="ORDER_DELIVERY_DATE" style="ellipse;whiteSpace=wrap;html=1;align=center;fontSize=8;" vertex="1" parent="1">
          <mxGeometry x="790" y="660" width="100" height="40" as="geometry" />
        </mxCell>
        <mxCell id="FI6vfKL5hPfgtBy2urA6-117" value="ORDER_WEIGHT" style="ellipse;whiteSpace=wrap;html=1;align=center;fontSize=8;" vertex="1" parent="1">
          <mxGeometry x="790" y="700" width="100" height="40" as="geometry" />
        </mxCell>
        <mxCell id="FI6vfKL5hPfgtBy2urA6-118" value="ORDER_VOLUME" style="ellipse;whiteSpace=wrap;html=1;align=center;fontSize=8;" vertex="1" parent="1">
          <mxGeometry x="790" y="740" width="100" height="40" as="geometry" />
        </mxCell>
        <mxCell id="FI6vfKL5hPfgtBy2urA6-119" value="ORDER_DISTANCE" style="ellipse;whiteSpace=wrap;html=1;align=center;fontSize=8;" vertex="1" parent="1">
          <mxGeometry x="790" y="780" width="100" height="40" as="geometry" />
        </mxCell>
        <mxCell id="FI6vfKL5hPfgtBy2urA6-120" value="ORDER_START" style="ellipse;whiteSpace=wrap;html=1;align=center;fontSize=8;" vertex="1" parent="1">
          <mxGeometry x="790" y="820" width="100" height="40" as="geometry" />
        </mxCell>
        <mxCell id="FI6vfKL5hPfgtBy2urA6-121" value="ORDER_DESTINATION" style="ellipse;whiteSpace=wrap;html=1;align=center;fontSize=8;" vertex="1" parent="1">
          <mxGeometry x="790" y="860" width="100" height="40" as="geometry" />
        </mxCell>
        <mxCell id="FI6vfKL5hPfgtBy2urA6-122" value="ORDER_COST" style="ellipse;whiteSpace=wrap;html=1;align=center;fontSize=8;" vertex="1" parent="1">
          <mxGeometry x="790" y="900" width="100" height="40" as="geometry" />
        </mxCell>
        <mxCell id="FI6vfKL5hPfgtBy2urA6-124" value="CUS_ID" style="ellipse;whiteSpace=wrap;html=1;align=center;fontStyle=4;fontSize=8;" vertex="1" parent="1">
          <mxGeometry x="770" width="100" height="40" as="geometry" />
        </mxCell>
        <mxCell id="FI6vfKL5hPfgtBy2urA6-125" value="CUS_NAME" style="ellipse;whiteSpace=wrap;html=1;align=center;fontSize=8;" vertex="1" parent="1">
          <mxGeometry x="770" y="40" width="100" height="40" as="geometry" />
        </mxCell>
        <mxCell id="FI6vfKL5hPfgtBy2urA6-126" value="CUS_ADDRESS" style="ellipse;whiteSpace=wrap;html=1;align=center;fontSize=8;" vertex="1" parent="1">
          <mxGeometry x="770" y="80" width="100" height="40" as="geometry" />
        </mxCell>
        <mxCell id="FI6vfKL5hPfgtBy2urA6-127" value="CUS_PHONE" style="ellipse;whiteSpace=wrap;html=1;align=center;fontSize=8;" vertex="1" parent="1">
          <mxGeometry x="770" y="120" width="100" height="40" as="geometry" />
        </mxCell>
        <mxCell id="FI6vfKL5hPfgtBy2urA6-128" value="CUS_EMAIL" style="ellipse;whiteSpace=wrap;html=1;align=center;fontSize=8;" vertex="1" parent="1">
          <mxGeometry x="770" y="160" width="100" height="40" as="geometry" />
        </mxCell>
        <mxCell id="FI6vfKL5hPfgtBy2urA6-130" value="RATE_APPLY" style="ellipse;whiteSpace=wrap;html=1;align=center;fontSize=8;" vertex="1" parent="1">
          <mxGeometry x="460" y="920" width="100" height="40" as="geometry" />
        </mxCell>
        <mxCell id="FI6vfKL5hPfgtBy2urA6-131" value="RATE_DESCRIPTION" style="ellipse;whiteSpace=wrap;html=1;align=center;fontSize=8;" vertex="1" parent="1">
          <mxGeometry x="460" y="960" width="100" height="40" as="geometry" />
        </mxCell>
        <mxCell id="FI6vfKL5hPfgtBy2urA6-133" value="RATE_CODE" style="ellipse;whiteSpace=wrap;html=1;align=center;fontStyle=4;fontSize=8;" vertex="1" parent="1">
          <mxGeometry x="460" y="880" width="100" height="40" as="geometry" />
        </mxCell>
        <mxCell id="FI6vfKL5hPfgtBy2urA6-134" value="" style="endArrow=none;html=1;rounded=0;edgeStyle=elbowEdgeStyle;" edge="1" parent="1" source="FI6vfKL5hPfgtBy2urA6-22" target="FI6vfKL5hPfgtBy2urA6-86">
          <mxGeometry relative="1" as="geometry">
            <mxPoint x="270" y="590" as="sourcePoint" />
            <mxPoint x="430" y="590" as="targetPoint" />
          </mxGeometry>
        </mxCell>
        <mxCell id="FI6vfKL5hPfgtBy2urA6-135" value="" style="endArrow=none;html=1;rounded=0;edgeStyle=elbowEdgeStyle;" edge="1" parent="1" source="FI6vfKL5hPfgtBy2urA6-22" target="FI6vfKL5hPfgtBy2urA6-87">
          <mxGeometry relative="1" as="geometry">
            <mxPoint x="270" y="590" as="sourcePoint" />
            <mxPoint x="430" y="590" as="targetPoint" />
          </mxGeometry>
        </mxCell>
        <mxCell id="FI6vfKL5hPfgtBy2urA6-136" value="" style="endArrow=none;html=1;rounded=0;edgeStyle=elbowEdgeStyle;" edge="1" parent="1" source="FI6vfKL5hPfgtBy2urA6-23" target="FI6vfKL5hPfgtBy2urA6-88">
          <mxGeometry relative="1" as="geometry">
            <mxPoint x="270" y="670" as="sourcePoint" />
            <mxPoint x="430" y="670" as="targetPoint" />
          </mxGeometry>
        </mxCell>
        <mxCell id="FI6vfKL5hPfgtBy2urA6-140" value="" style="endArrow=none;html=1;rounded=0;edgeStyle=elbowEdgeStyle;" edge="1" parent="1" source="FI6vfKL5hPfgtBy2urA6-23" target="FI6vfKL5hPfgtBy2urA6-89">
          <mxGeometry relative="1" as="geometry">
            <mxPoint x="270" y="850" as="sourcePoint" />
            <mxPoint x="430" y="850" as="targetPoint" />
          </mxGeometry>
        </mxCell>
        <mxCell id="FI6vfKL5hPfgtBy2urA6-141" value="" style="endArrow=none;html=1;rounded=0;edgeStyle=orthogonalEdgeStyle;" edge="1" parent="1" source="FI6vfKL5hPfgtBy2urA6-95" target="FI6vfKL5hPfgtBy2urA6-21">
          <mxGeometry relative="1" as="geometry">
            <mxPoint x="40" y="160" as="sourcePoint" />
            <mxPoint x="200" y="160" as="targetPoint" />
          </mxGeometry>
        </mxCell>
        <mxCell id="FI6vfKL5hPfgtBy2urA6-143" value="" style="endArrow=none;html=1;rounded=0;edgeStyle=orthogonalEdgeStyle;" edge="1" parent="1" source="FI6vfKL5hPfgtBy2urA6-96" target="FI6vfKL5hPfgtBy2urA6-21">
          <mxGeometry relative="1" as="geometry">
            <mxPoint x="40" y="160" as="sourcePoint" />
            <mxPoint x="200" y="160" as="targetPoint" />
          </mxGeometry>
        </mxCell>
        <mxCell id="FI6vfKL5hPfgtBy2urA6-144" value="" style="endArrow=none;html=1;rounded=0;edgeStyle=orthogonalEdgeStyle;" edge="1" parent="1" source="FI6vfKL5hPfgtBy2urA6-97" target="FI6vfKL5hPfgtBy2urA6-21">
          <mxGeometry relative="1" as="geometry">
            <mxPoint x="40" y="160" as="sourcePoint" />
            <mxPoint x="200" y="160" as="targetPoint" />
          </mxGeometry>
        </mxCell>
        <mxCell id="FI6vfKL5hPfgtBy2urA6-145" value="" style="endArrow=none;html=1;rounded=0;edgeStyle=orthogonalEdgeStyle;" edge="1" parent="1" source="FI6vfKL5hPfgtBy2urA6-98" target="FI6vfKL5hPfgtBy2urA6-21">
          <mxGeometry relative="1" as="geometry">
            <mxPoint x="40" y="160" as="sourcePoint" />
            <mxPoint x="200" y="160" as="targetPoint" />
          </mxGeometry>
        </mxCell>
        <mxCell id="FI6vfKL5hPfgtBy2urA6-146" value="" style="endArrow=none;html=1;rounded=0;edgeStyle=orthogonalEdgeStyle;" edge="1" parent="1" source="FI6vfKL5hPfgtBy2urA6-99" target="FI6vfKL5hPfgtBy2urA6-21">
          <mxGeometry relative="1" as="geometry">
            <mxPoint x="40" y="160" as="sourcePoint" />
            <mxPoint x="200" y="160" as="targetPoint" />
          </mxGeometry>
        </mxCell>
        <mxCell id="FI6vfKL5hPfgtBy2urA6-147" value="" style="endArrow=none;html=1;rounded=0;edgeStyle=orthogonalEdgeStyle;" edge="1" parent="1" source="FI6vfKL5hPfgtBy2urA6-100" target="FI6vfKL5hPfgtBy2urA6-21">
          <mxGeometry relative="1" as="geometry">
            <mxPoint x="40" y="160" as="sourcePoint" />
            <mxPoint x="200" y="160" as="targetPoint" />
          </mxGeometry>
        </mxCell>
        <mxCell id="FI6vfKL5hPfgtBy2urA6-148" value="" style="endArrow=none;html=1;rounded=0;edgeStyle=orthogonalEdgeStyle;" edge="1" parent="1" source="FI6vfKL5hPfgtBy2urA6-101" target="FI6vfKL5hPfgtBy2urA6-21">
          <mxGeometry relative="1" as="geometry">
            <mxPoint x="40" y="160" as="sourcePoint" />
            <mxPoint x="200" y="160" as="targetPoint" />
          </mxGeometry>
        </mxCell>
        <mxCell id="FI6vfKL5hPfgtBy2urA6-149" value="" style="endArrow=none;html=1;rounded=0;edgeStyle=orthogonalEdgeStyle;" edge="1" parent="1" source="FI6vfKL5hPfgtBy2urA6-102" target="FI6vfKL5hPfgtBy2urA6-21">
          <mxGeometry relative="1" as="geometry">
            <mxPoint x="40" y="160" as="sourcePoint" />
            <mxPoint x="200" y="160" as="targetPoint" />
          </mxGeometry>
        </mxCell>
        <mxCell id="FI6vfKL5hPfgtBy2urA6-150" value="" style="endArrow=none;html=1;rounded=0;edgeStyle=orthogonalEdgeStyle;" edge="1" parent="1" source="FI6vfKL5hPfgtBy2urA6-103" target="FI6vfKL5hPfgtBy2urA6-21">
          <mxGeometry relative="1" as="geometry">
            <mxPoint x="40" y="330" as="sourcePoint" />
            <mxPoint x="200" y="330" as="targetPoint" />
          </mxGeometry>
        </mxCell>
        <mxCell id="FI6vfKL5hPfgtBy2urA6-158" value="TRUCK_ORDER" style="shape=associativeEntity;whiteSpace=wrap;html=1;align=center;" vertex="1" parent="1">
          <mxGeometry x="284" y="580" width="140" height="60" as="geometry" />
        </mxCell>
        <mxCell id="FI6vfKL5hPfgtBy2urA6-159" value="has" style="shape=rhombus;double=1;perimeter=rhombusPerimeter;whiteSpace=wrap;html=1;align=center;fontSize=10;" vertex="1" parent="1">
          <mxGeometry x="120" y="580" width="120" height="60" as="geometry" />
        </mxCell>
        <mxCell id="FI6vfKL5hPfgtBy2urA6-160" value="runs" style="shape=rhombus;double=1;perimeter=rhombusPerimeter;whiteSpace=wrap;html=1;align=center;fontSize=10;" vertex="1" parent="1">
          <mxGeometry x="460" y="580" width="120" height="60" as="geometry" />
        </mxCell>
        <mxCell id="FI6vfKL5hPfgtBy2urA6-161" value="" style="endArrow=none;html=1;rounded=0;" edge="1" parent="1" source="FI6vfKL5hPfgtBy2urA6-20" target="FI6vfKL5hPfgtBy2urA6-159">
          <mxGeometry relative="1" as="geometry">
            <mxPoint x="310" y="670" as="sourcePoint" />
            <mxPoint x="470" y="670" as="targetPoint" />
          </mxGeometry>
        </mxCell>
        <mxCell id="FI6vfKL5hPfgtBy2urA6-162" value="1" style="resizable=0;html=1;whiteSpace=wrap;align=right;verticalAlign=bottom;" connectable="0" vertex="1" parent="FI6vfKL5hPfgtBy2urA6-161">
          <mxGeometry x="1" relative="1" as="geometry" />
        </mxCell>
        <mxCell id="FI6vfKL5hPfgtBy2urA6-163" value="" style="endArrow=none;html=1;rounded=0;dashed=1;dashPattern=1 2;" edge="1" parent="1" source="FI6vfKL5hPfgtBy2urA6-158" target="FI6vfKL5hPfgtBy2urA6-159">
          <mxGeometry relative="1" as="geometry">
            <mxPoint x="310" y="670" as="sourcePoint" />
            <mxPoint x="470" y="670" as="targetPoint" />
          </mxGeometry>
        </mxCell>
        <mxCell id="FI6vfKL5hPfgtBy2urA6-164" value="N" style="resizable=0;html=1;whiteSpace=wrap;align=right;verticalAlign=bottom;" connectable="0" vertex="1" parent="FI6vfKL5hPfgtBy2urA6-163">
          <mxGeometry x="1" relative="1" as="geometry" />
        </mxCell>
        <mxCell id="FI6vfKL5hPfgtBy2urA6-165" value="" style="endArrow=none;html=1;rounded=0;dashed=1;dashPattern=1 2;" edge="1" parent="1" source="FI6vfKL5hPfgtBy2urA6-158" target="FI6vfKL5hPfgtBy2urA6-160">
          <mxGeometry relative="1" as="geometry">
            <mxPoint x="310" y="670" as="sourcePoint" />
            <mxPoint x="470" y="670" as="targetPoint" />
          </mxGeometry>
        </mxCell>
        <mxCell id="FI6vfKL5hPfgtBy2urA6-166" value="N" style="resizable=0;html=1;whiteSpace=wrap;align=right;verticalAlign=bottom;" connectable="0" vertex="1" parent="FI6vfKL5hPfgtBy2urA6-165">
          <mxGeometry x="1" relative="1" as="geometry" />
        </mxCell>
        <mxCell id="FI6vfKL5hPfgtBy2urA6-167" value="" style="endArrow=none;html=1;rounded=0;" edge="1" parent="1" source="FI6vfKL5hPfgtBy2urA6-26" target="FI6vfKL5hPfgtBy2urA6-160">
          <mxGeometry relative="1" as="geometry">
            <mxPoint x="310" y="670" as="sourcePoint" />
            <mxPoint x="470" y="670" as="targetPoint" />
          </mxGeometry>
        </mxCell>
        <mxCell id="FI6vfKL5hPfgtBy2urA6-168" value="1" style="resizable=0;html=1;whiteSpace=wrap;align=right;verticalAlign=bottom;" connectable="0" vertex="1" parent="FI6vfKL5hPfgtBy2urA6-167">
          <mxGeometry x="1" relative="1" as="geometry" />
        </mxCell>
        <mxCell id="FI6vfKL5hPfgtBy2urA6-174" value="" style="endArrow=none;html=1;rounded=0;edgeStyle=elbowEdgeStyle;" edge="1" parent="1" source="FI6vfKL5hPfgtBy2urA6-90" target="FI6vfKL5hPfgtBy2urA6-20">
          <mxGeometry relative="1" as="geometry">
            <mxPoint x="40" y="500" as="sourcePoint" />
            <mxPoint x="200" y="500" as="targetPoint" />
          </mxGeometry>
        </mxCell>
        <mxCell id="FI6vfKL5hPfgtBy2urA6-175" value="" style="endArrow=none;html=1;rounded=0;edgeStyle=elbowEdgeStyle;" edge="1" parent="1" source="FI6vfKL5hPfgtBy2urA6-91" target="FI6vfKL5hPfgtBy2urA6-20">
          <mxGeometry relative="1" as="geometry">
            <mxPoint x="40" y="500" as="sourcePoint" />
            <mxPoint x="200" y="500" as="targetPoint" />
          </mxGeometry>
        </mxCell>
        <mxCell id="FI6vfKL5hPfgtBy2urA6-176" value="" style="endArrow=none;html=1;rounded=0;edgeStyle=elbowEdgeStyle;" edge="1" parent="1" source="FI6vfKL5hPfgtBy2urA6-92" target="FI6vfKL5hPfgtBy2urA6-20">
          <mxGeometry relative="1" as="geometry">
            <mxPoint x="40" y="500" as="sourcePoint" />
            <mxPoint x="200" y="500" as="targetPoint" />
          </mxGeometry>
        </mxCell>
        <mxCell id="FI6vfKL5hPfgtBy2urA6-177" value="" style="endArrow=none;html=1;rounded=0;edgeStyle=elbowEdgeStyle;" edge="1" parent="1" source="FI6vfKL5hPfgtBy2urA6-93" target="FI6vfKL5hPfgtBy2urA6-20">
          <mxGeometry relative="1" as="geometry">
            <mxPoint x="40" y="500" as="sourcePoint" />
            <mxPoint x="200" y="500" as="targetPoint" />
          </mxGeometry>
        </mxCell>
        <mxCell id="FI6vfKL5hPfgtBy2urA6-178" value="" style="endArrow=none;html=1;rounded=0;edgeStyle=elbowEdgeStyle;" edge="1" parent="1" source="FI6vfKL5hPfgtBy2urA6-94" target="FI6vfKL5hPfgtBy2urA6-20">
          <mxGeometry relative="1" as="geometry">
            <mxPoint x="40" y="500" as="sourcePoint" />
            <mxPoint x="200" y="500" as="targetPoint" />
          </mxGeometry>
        </mxCell>
        <mxCell id="FI6vfKL5hPfgtBy2urA6-182" value="" style="endArrow=none;html=1;rounded=0;edgeStyle=elbowEdgeStyle;entryX=0;entryY=0.5;entryDx=0;entryDy=0;" edge="1" parent="1" source="FI6vfKL5hPfgtBy2urA6-109" target="FI6vfKL5hPfgtBy2urA6-25">
          <mxGeometry relative="1" as="geometry">
            <mxPoint x="20" y="850" as="sourcePoint" />
            <mxPoint x="210" y="810" as="targetPoint" />
          </mxGeometry>
        </mxCell>
        <mxCell id="FI6vfKL5hPfgtBy2urA6-180" value="" style="endArrow=none;html=1;rounded=0;edgeStyle=elbowEdgeStyle;" edge="1" parent="1" source="FI6vfKL5hPfgtBy2urA6-107" target="FI6vfKL5hPfgtBy2urA6-25">
          <mxGeometry relative="1" as="geometry">
            <mxPoint x="20" y="850" as="sourcePoint" />
            <mxPoint x="180" y="850" as="targetPoint" />
          </mxGeometry>
        </mxCell>
        <mxCell id="FI6vfKL5hPfgtBy2urA6-181" value="" style="endArrow=none;html=1;rounded=0;edgeStyle=elbowEdgeStyle;" edge="1" parent="1" source="FI6vfKL5hPfgtBy2urA6-108" target="FI6vfKL5hPfgtBy2urA6-25">
          <mxGeometry relative="1" as="geometry">
            <mxPoint x="20" y="850" as="sourcePoint" />
            <mxPoint x="180" y="850" as="targetPoint" />
          </mxGeometry>
        </mxCell>
        <mxCell id="FI6vfKL5hPfgtBy2urA6-184" value="" style="endArrow=none;html=1;rounded=0;edgeStyle=elbowEdgeStyle;" edge="1" parent="1" source="FI6vfKL5hPfgtBy2urA6-32" target="FI6vfKL5hPfgtBy2urA6-124">
          <mxGeometry relative="1" as="geometry">
            <mxPoint x="510" y="160" as="sourcePoint" />
            <mxPoint x="670" y="160" as="targetPoint" />
          </mxGeometry>
        </mxCell>
        <mxCell id="FI6vfKL5hPfgtBy2urA6-185" value="" style="endArrow=none;html=1;rounded=0;edgeStyle=elbowEdgeStyle;" edge="1" parent="1" source="FI6vfKL5hPfgtBy2urA6-125" target="FI6vfKL5hPfgtBy2urA6-32">
          <mxGeometry relative="1" as="geometry">
            <mxPoint x="510" y="160" as="sourcePoint" />
            <mxPoint x="670" y="160" as="targetPoint" />
          </mxGeometry>
        </mxCell>
        <mxCell id="FI6vfKL5hPfgtBy2urA6-186" value="" style="endArrow=none;html=1;rounded=0;edgeStyle=elbowEdgeStyle;" edge="1" parent="1" source="FI6vfKL5hPfgtBy2urA6-126" target="FI6vfKL5hPfgtBy2urA6-32">
          <mxGeometry relative="1" as="geometry">
            <mxPoint x="510" y="160" as="sourcePoint" />
            <mxPoint x="670" y="160" as="targetPoint" />
          </mxGeometry>
        </mxCell>
        <mxCell id="FI6vfKL5hPfgtBy2urA6-187" value="" style="endArrow=none;html=1;rounded=0;edgeStyle=elbowEdgeStyle;" edge="1" parent="1" source="FI6vfKL5hPfgtBy2urA6-32" target="FI6vfKL5hPfgtBy2urA6-127">
          <mxGeometry relative="1" as="geometry">
            <mxPoint x="510" y="160" as="sourcePoint" />
            <mxPoint x="670" y="160" as="targetPoint" />
          </mxGeometry>
        </mxCell>
        <mxCell id="FI6vfKL5hPfgtBy2urA6-188" value="" style="endArrow=none;html=1;rounded=0;edgeStyle=elbowEdgeStyle;" edge="1" parent="1" source="FI6vfKL5hPfgtBy2urA6-32" target="FI6vfKL5hPfgtBy2urA6-128">
          <mxGeometry relative="1" as="geometry">
            <mxPoint x="510" y="160" as="sourcePoint" />
            <mxPoint x="670" y="160" as="targetPoint" />
          </mxGeometry>
        </mxCell>
        <mxCell id="FI6vfKL5hPfgtBy2urA6-190" value="" style="endArrow=none;html=1;rounded=0;edgeStyle=elbowEdgeStyle;" edge="1" parent="1" source="FI6vfKL5hPfgtBy2urA6-33" target="FI6vfKL5hPfgtBy2urA6-133">
          <mxGeometry relative="1" as="geometry">
            <mxPoint x="250" y="850" as="sourcePoint" />
            <mxPoint x="410" y="850" as="targetPoint" />
          </mxGeometry>
        </mxCell>
        <mxCell id="FI6vfKL5hPfgtBy2urA6-191" value="" style="endArrow=none;html=1;rounded=0;edgeStyle=elbowEdgeStyle;" edge="1" parent="1" source="FI6vfKL5hPfgtBy2urA6-33" target="FI6vfKL5hPfgtBy2urA6-130">
          <mxGeometry relative="1" as="geometry">
            <mxPoint x="250" y="850" as="sourcePoint" />
            <mxPoint x="410" y="850" as="targetPoint" />
          </mxGeometry>
        </mxCell>
        <mxCell id="FI6vfKL5hPfgtBy2urA6-192" value="" style="endArrow=none;html=1;rounded=0;edgeStyle=elbowEdgeStyle;" edge="1" parent="1" source="FI6vfKL5hPfgtBy2urA6-131" target="FI6vfKL5hPfgtBy2urA6-33">
          <mxGeometry relative="1" as="geometry">
            <mxPoint x="250" y="850" as="sourcePoint" />
            <mxPoint x="410" y="850" as="targetPoint" />
          </mxGeometry>
        </mxCell>
        <mxCell id="FI6vfKL5hPfgtBy2urA6-193" value="" style="endArrow=none;html=1;rounded=0;edgeStyle=elbowEdgeStyle;" edge="1" parent="1" source="FI6vfKL5hPfgtBy2urA6-26" target="FI6vfKL5hPfgtBy2urA6-110">
          <mxGeometry relative="1" as="geometry">
            <mxPoint x="660" y="590" as="sourcePoint" />
            <mxPoint x="820" y="590" as="targetPoint" />
          </mxGeometry>
        </mxCell>
        <mxCell id="FI6vfKL5hPfgtBy2urA6-194" value="" style="endArrow=none;html=1;rounded=0;edgeStyle=elbowEdgeStyle;" edge="1" parent="1" source="FI6vfKL5hPfgtBy2urA6-26" target="FI6vfKL5hPfgtBy2urA6-111">
          <mxGeometry relative="1" as="geometry">
            <mxPoint x="660" y="590" as="sourcePoint" />
            <mxPoint x="820" y="590" as="targetPoint" />
          </mxGeometry>
        </mxCell>
        <mxCell id="FI6vfKL5hPfgtBy2urA6-195" value="" style="endArrow=none;html=1;rounded=0;edgeStyle=elbowEdgeStyle;" edge="1" parent="1" source="FI6vfKL5hPfgtBy2urA6-26" target="FI6vfKL5hPfgtBy2urA6-112">
          <mxGeometry relative="1" as="geometry">
            <mxPoint x="660" y="590" as="sourcePoint" />
            <mxPoint x="820" y="590" as="targetPoint" />
          </mxGeometry>
        </mxCell>
        <mxCell id="FI6vfKL5hPfgtBy2urA6-196" value="" style="endArrow=none;html=1;rounded=0;edgeStyle=elbowEdgeStyle;" edge="1" parent="1" source="FI6vfKL5hPfgtBy2urA6-26" target="FI6vfKL5hPfgtBy2urA6-113">
          <mxGeometry relative="1" as="geometry">
            <mxPoint x="660" y="590" as="sourcePoint" />
            <mxPoint x="820" y="590" as="targetPoint" />
          </mxGeometry>
        </mxCell>
        <mxCell id="FI6vfKL5hPfgtBy2urA6-197" value="" style="endArrow=none;html=1;rounded=0;edgeStyle=elbowEdgeStyle;" edge="1" parent="1" source="FI6vfKL5hPfgtBy2urA6-26" target="FI6vfKL5hPfgtBy2urA6-114">
          <mxGeometry relative="1" as="geometry">
            <mxPoint x="660" y="670" as="sourcePoint" />
            <mxPoint x="820" y="670" as="targetPoint" />
          </mxGeometry>
        </mxCell>
        <mxCell id="FI6vfKL5hPfgtBy2urA6-198" value="" style="endArrow=none;html=1;rounded=0;edgeStyle=elbowEdgeStyle;" edge="1" parent="1" source="FI6vfKL5hPfgtBy2urA6-26" target="FI6vfKL5hPfgtBy2urA6-115">
          <mxGeometry relative="1" as="geometry">
            <mxPoint x="660" y="670" as="sourcePoint" />
            <mxPoint x="820" y="670" as="targetPoint" />
          </mxGeometry>
        </mxCell>
        <mxCell id="FI6vfKL5hPfgtBy2urA6-199" value="" style="endArrow=none;html=1;rounded=0;edgeStyle=elbowEdgeStyle;" edge="1" parent="1" source="FI6vfKL5hPfgtBy2urA6-26" target="FI6vfKL5hPfgtBy2urA6-116">
          <mxGeometry relative="1" as="geometry">
            <mxPoint x="660" y="670" as="sourcePoint" />
            <mxPoint x="820" y="670" as="targetPoint" />
          </mxGeometry>
        </mxCell>
        <mxCell id="FI6vfKL5hPfgtBy2urA6-200" value="" style="endArrow=none;html=1;rounded=0;edgeStyle=elbowEdgeStyle;" edge="1" parent="1" source="FI6vfKL5hPfgtBy2urA6-26" target="FI6vfKL5hPfgtBy2urA6-117">
          <mxGeometry relative="1" as="geometry">
            <mxPoint x="660" y="670" as="sourcePoint" />
            <mxPoint x="820" y="670" as="targetPoint" />
          </mxGeometry>
        </mxCell>
        <mxCell id="FI6vfKL5hPfgtBy2urA6-201" value="" style="endArrow=none;html=1;rounded=0;edgeStyle=elbowEdgeStyle;" edge="1" parent="1" source="FI6vfKL5hPfgtBy2urA6-26" target="FI6vfKL5hPfgtBy2urA6-118">
          <mxGeometry relative="1" as="geometry">
            <mxPoint x="660" y="760" as="sourcePoint" />
            <mxPoint x="820" y="760" as="targetPoint" />
          </mxGeometry>
        </mxCell>
        <mxCell id="FI6vfKL5hPfgtBy2urA6-202" value="" style="endArrow=none;html=1;rounded=0;edgeStyle=elbowEdgeStyle;" edge="1" parent="1" source="FI6vfKL5hPfgtBy2urA6-26" target="FI6vfKL5hPfgtBy2urA6-119">
          <mxGeometry relative="1" as="geometry">
            <mxPoint x="660" y="760" as="sourcePoint" />
            <mxPoint x="820" y="760" as="targetPoint" />
          </mxGeometry>
        </mxCell>
        <mxCell id="FI6vfKL5hPfgtBy2urA6-203" value="" style="endArrow=none;html=1;rounded=0;edgeStyle=elbowEdgeStyle;" edge="1" parent="1" source="FI6vfKL5hPfgtBy2urA6-26" target="FI6vfKL5hPfgtBy2urA6-120">
          <mxGeometry relative="1" as="geometry">
            <mxPoint x="660" y="760" as="sourcePoint" />
            <mxPoint x="820" y="760" as="targetPoint" />
          </mxGeometry>
        </mxCell>
        <mxCell id="FI6vfKL5hPfgtBy2urA6-204" value="" style="endArrow=none;html=1;rounded=0;edgeStyle=elbowEdgeStyle;" edge="1" parent="1" source="FI6vfKL5hPfgtBy2urA6-26" target="FI6vfKL5hPfgtBy2urA6-121">
          <mxGeometry relative="1" as="geometry">
            <mxPoint x="660" y="760" as="sourcePoint" />
            <mxPoint x="820" y="760" as="targetPoint" />
          </mxGeometry>
        </mxCell>
        <mxCell id="FI6vfKL5hPfgtBy2urA6-205" value="" style="endArrow=none;html=1;rounded=0;edgeStyle=elbowEdgeStyle;" edge="1" parent="1" source="FI6vfKL5hPfgtBy2urA6-26" target="FI6vfKL5hPfgtBy2urA6-122">
          <mxGeometry relative="1" as="geometry">
            <mxPoint x="660" y="760" as="sourcePoint" />
            <mxPoint x="820" y="760" as="targetPoint" />
          </mxGeometry>
        </mxCell>
        <mxCell id="FI6vfKL5hPfgtBy2urA6-207" value="" style="endArrow=none;html=1;rounded=0;" edge="1" parent="1" source="FI6vfKL5hPfgtBy2urA6-3" target="FI6vfKL5hPfgtBy2urA6-1">
          <mxGeometry relative="1" as="geometry">
            <mxPoint x="320" y="300" as="sourcePoint" />
            <mxPoint x="480" y="300" as="targetPoint" />
          </mxGeometry>
        </mxCell>
        <mxCell id="FI6vfKL5hPfgtBy2urA6-208" value="" style="endArrow=none;html=1;rounded=0;" edge="1" parent="1" source="FI6vfKL5hPfgtBy2urA6-4" target="FI6vfKL5hPfgtBy2urA6-1">
          <mxGeometry relative="1" as="geometry">
            <mxPoint x="320" y="300" as="sourcePoint" />
            <mxPoint x="480" y="300" as="targetPoint" />
          </mxGeometry>
        </mxCell>
        <mxCell id="FI6vfKL5hPfgtBy2urA6-209" value="" style="endArrow=none;html=1;rounded=0;" edge="1" parent="1" source="FI6vfKL5hPfgtBy2urA6-2" target="FI6vfKL5hPfgtBy2urA6-1">
          <mxGeometry relative="1" as="geometry">
            <mxPoint x="320" y="300" as="sourcePoint" />
            <mxPoint x="480" y="300" as="targetPoint" />
          </mxGeometry>
        </mxCell>
        <mxCell id="FI6vfKL5hPfgtBy2urA6-210" value="" style="endArrow=none;html=1;rounded=0;" edge="1" parent="1" source="FI6vfKL5hPfgtBy2urA6-7" target="FI6vfKL5hPfgtBy2urA6-1">
          <mxGeometry relative="1" as="geometry">
            <mxPoint x="320" y="300" as="sourcePoint" />
            <mxPoint x="480" y="300" as="targetPoint" />
          </mxGeometry>
        </mxCell>
        <mxCell id="FI6vfKL5hPfgtBy2urA6-211" value="" style="endArrow=none;html=1;rounded=0;" edge="1" parent="1" source="FI6vfKL5hPfgtBy2urA6-1" target="FI6vfKL5hPfgtBy2urA6-6">
          <mxGeometry relative="1" as="geometry">
            <mxPoint x="320" y="300" as="sourcePoint" />
            <mxPoint x="480" y="300" as="targetPoint" />
          </mxGeometry>
        </mxCell>
        <mxCell id="FI6vfKL5hPfgtBy2urA6-212" value="" style="endArrow=none;html=1;rounded=0;" edge="1" parent="1" source="FI6vfKL5hPfgtBy2urA6-1" target="FI6vfKL5hPfgtBy2urA6-5">
          <mxGeometry relative="1" as="geometry">
            <mxPoint x="320" y="300" as="sourcePoint" />
            <mxPoint x="480" y="300" as="targetPoint" />
          </mxGeometry>
        </mxCell>
      </root>
    </mxGraphModel>
  </diagram>
</mxfile>
